<svg id="Layer_2" data-name="Layer 2" xmlns="http://www.w3.org/2000/svg" xmlns:xlink="http://www.w3.org/1999/xlink" viewBox="0 0 456.71 104.36"><defs><style>.cls-1{fill:none;}.cls-2{clip-path:url(#clip-path);}.cls-3,.cls-4{fill:#fff;}.cls-3{fill-rule:evenodd;}</style><clipPath id="clip-path" transform="translate(146.6 -115.35)"><rect class="cls-1" x="-148" y="113.75" width="459.5" height="107"/></clipPath></defs><title>J&amp;amp;B One Colour wine + spirit White on 323641- Name and Text</title><g class="cls-2"><path class="cls-3" d="M240.76,136.05a11.84,11.84,0,0,0-12,12.06,11.65,11.65,0,0,0,11.7,11.57,12,12,0,0,0,12.13-12,11.72,11.72,0,0,0-11.78-11.68Zm-1.43,2.07a7.14,7.14,0,0,0-7,7.53,14,14,0,0,0,3.05,8.42c2,2.4,4.53,3.68,6.62,3.68,3,0,6.85-2.1,6.85-7.75a13.3,13.3,0,0,0-2.7-8c-1.82-2.47-4.1-3.88-6.78-3.88Z" transform="translate(146.6 -115.35)"/><path class="cls-3" d="M-45.57,148.38c0,.14.26,0,.38,0a120.1,120.1,0,0,0,11.85-5.09c.79-.42,1-.49.69-1.11A7.32,7.32,0,0,0-39.09,138c-5.7.1-7.59,5.47-6.48,10.42Zm.57,1.82c4.7-2,12.22-5.22,17-6.95.95-.34.56-.87.31-1.31a11.57,11.57,0,0,0-11-5.8c-6.44.36-11,6.4-10.84,12.24a11.72,11.72,0,0,0,11.82,11.55c4.18.11,7.51-2.42,9.39-4.71.32-.39,1.12-1.54.85-1.82s-.42-.14-.88.35A10.12,10.12,0,0,1-35.72,157c-4.2.08-7.65-3.12-9.28-6.82Z" transform="translate(146.6 -115.35)"/><path class="cls-3" d="M209.25,136.05a11.85,11.85,0,0,0-12.06,12.06,11.66,11.66,0,0,0,11.7,11.57,12,12,0,0,0,12.13-12,11.72,11.72,0,0,0-11.77-11.68Zm-1.44,2.07a7.14,7.14,0,0,0-7,7.53,13.91,13.91,0,0,0,3.05,8.42c2,2.4,4.52,3.68,6.62,3.68,3.05,0,6.85-2.1,6.85-7.75a13.37,13.37,0,0,0-2.7-8c-1.83-2.47-4.11-3.88-6.79-3.88Z" transform="translate(146.6 -115.35)"/><path class="cls-3" d="M143.43,135.19a46.62,46.62,0,0,0,8.31-.28c4-.85,6.5-4.72,6.4-9.29-.12-5.13-3.44-7.88-7.58-8.24a45.67,45.67,0,0,0-6.7.09c-.42,4.68-.37,14.37-.43,17.72Zm0,1.84.14,20.22s4,.38,7.22.31c6.19-.13,9.44-4.53,9.44-10.23,0-7.14-3.61-10.17-10-10.43a58.48,58.48,0,0,0-6.75.13Zm-7.93-21.54c4.15.23,11,.2,15.17.16,5.91-.07,12,3.64,12.13,9.88.13,5.76-4.78,9.79-10.18,10.46,7,.35,12.86,4.34,12.79,11.37-.06,6.3-6.42,12-14.37,11.82-5.33-.14-9.55-.27-16.32.07-.1,0-.45,0-.45-.33s.51-.1,1-.17c2.61-.14,3.66-2.82,3.74-4.84.27-7.19.28-12,.27-17.13,0-4.34-.09-9.48-.2-15.39-.1-5.06-2.31-5.45-3.46-5.45-.27,0-.64.19-.63-.09s.15-.38.5-.36Z" transform="translate(146.6 -115.35)"/><path class="cls-3" d="M5.47,126.94a2.43,2.43,0,0,1,2.39-2.35,2.32,2.32,0,0,1,2.33,2.34,2.36,2.36,0,0,1-2.36,2.36,2.32,2.32,0,0,1-2.36-2.35Zm-2.32,9.9a43.51,43.51,0,0,0,6,.09c.57-.05,1.07.06.91,1.3s-.12,6.41-.28,13.88c-.07,3.34.16,6.42,3.82,7.15.51.11.56.35.22.55a3,3,0,0,1-1.35.19c-3.36-.05-6.58-1.95-6.56-6.36,0-5.21.15-7.35.07-11.86,0-2.06-.2-4.28-2.79-4.47-.32,0-.44-.1-.45-.22s0-.27.43-.25Z" transform="translate(146.6 -115.35)"/><path class="cls-3" d="M55,126.94a2.43,2.43,0,0,1,2.39-2.35,2.32,2.32,0,0,1,2.33,2.34,2.37,2.37,0,0,1-2.37,2.36A2.32,2.32,0,0,1,55,126.94Zm-2.33,9.9a43.66,43.66,0,0,0,6,.09c.57-.05,1.07.06.9,1.3s-.12,6.41-.27,13.88c-.07,3.34.16,6.42,3.81,7.15.52.11.56.35.22.55A3,3,0,0,1,62,160c-3.36-.05-6.58-1.95-6.56-6.36,0-5.21.15-7.35.07-11.86,0-2.06-.2-4.28-2.79-4.47-.32,0-.45-.1-.45-.22s0-.27.42-.25Z" transform="translate(146.6 -115.35)"/><path class="cls-4" d="M259,116a61.23,61.23,0,0,0,6.18.26c.88,0,1,.31.89,1.35-.21,11.67-.15,20.24-.28,30.4a87.2,87.2,0,0,0,9.65-7.85c.81-.72,1.48-2.47,0-2.91-.12,0-.28,0-.28-.13s0-.22.25-.23a56.42,56.42,0,0,0,7.66,0c.1,0,.23,0,.23.22s-.18.19-.28.19c-2.34.73-6,4-11.77,8.56,3.19,2.23,8.28,10.41,11.25,11.85,2.24,1.08,3.33-.16,3.44.55.1.55-1.63,1.8-3.68,1.8-3.48,0-5.58-2-7.67-4.28a68.75,68.75,0,0,1-5.91-7.81c-.54.47-1.95,1.46-2.83,2.26-.09,4.39-.08,8.37,3.21,8.7.34,0,.47.07.47.25s-.3.29-.63.26a42.68,42.68,0,0,0-9.22-.08c-.25,0-.41-.1-.41-.29s.24-.21.24-.21c2.33-.19,2.34-3.13,2.4-6.33.24-12.27.28-19.17.09-29.75-.06-3.58-.79-6.15-3.11-6.28-.52,0-.71-.54.15-.45Z" transform="translate(146.6 -115.35)"/><path class="cls-4" d="M20.22,136.76a46,46,0,0,0,5.78.12c1.25-.07,1.15.46,1.09,1.32-.1,1.7.08,2.62-.39,3.64.87-1.49,4.34-5.42,9.44-5.42,3.57,0,6.61,1.94,6.61,6.36,0,4.17,0,6.12,0,10.66,0,2.74.09,5.18,2.9,5.42.08,0,.34-.07.39.22s-.28.24-.38.23a54.6,54.6,0,0,0-8.51-.05c-.1,0-.4.14-.45-.2s.3-.21.39-.23c1.31-.27,1.74-1.74,1.78-3.1.12-5.09.13-7.69-.12-12.29-.14-2.67-1.17-4.68-4.21-4.68-3.51,0-6,2.46-7.38,4.43a2.28,2.28,0,0,0-.08.89c0,3.12,0,5.74,0,9.83,0,2.24.57,4.65,3.32,4.82.09,0,.37,0,.35.3,0,.18-.31.22-.39.21a64.6,64.6,0,0,0-8.82,0c-.3,0-.41,0-.47-.21s.26-.17.44-.23c1.59-.5,1.64-2.19,1.67-3.6.13-5.85.14-11.55-.1-14.31-.16-1.79-.3-3.88-2.85-3.65-.09,0-.31.06-.34-.23s.15-.23.37-.22Z" transform="translate(146.6 -115.35)"/><path class="cls-3" d="M107.21,133.82c-.4.33-1.89,1.74-2.75,2.47-.23.2-.53,0-.32-.31,1.26-1.93-.28-5.76-5.29-5.76-3.36,0-6.21,2-6.21,5.77,0,3.59,2.87,5.85,7.5,5.39,0,.08,0,2,0,2.11-4.77-.46-9.13,1.78-9.13,7.2,0,4.29,3.09,7.46,9.11,7.46,4.59,0,8.26-2.06,8.26-5.48a3,3,0,0,0-4.28-3c-.33.15-.38.45-.5.42s-.08-.27,0-.39a4.1,4.1,0,0,1,3.77-2.4c2.42,0,4.21,1.6,4.21,4.55,0,3.47-3.85,8.05-12.34,8.05-6.94,0-12.61-3.36-12.61-8.91s4.79-8.64,10.72-8.62c-5.33.26-8.66-2.78-8.66-6.23,0-4.85,5.21-7.57,9.84-7.57,3.78,0,6.63.85,8.72,3.27.44.51,1,1.19,0,2Z" transform="translate(146.6 -115.35)"/><path class="cls-4" d="M-83.55,136.13c4.36,0,5,.64,7.86.91.3,0,.27.29.28.59.06,1.76,0,2.83.06,4.87-.18,0-.26.15-.31.07-1.31-2.9-5.13-4.74-8.79-4.74-2.29,0-4.51,1.45-4.51,3.58s1.77,2.88,4.11,3.44c1.58.38,6.57,1.33,8.11,2.23a5.94,5.94,0,0,1,3.18,5.55c-.06,3.2-3.09,7.24-9.62,7.24-3.2,0-4.9-.54-8.09-1.31-.6-.08-.78-.1-.69-.63a26.54,26.54,0,0,0-.15-5.78c0-.45.31-.6.46-.06.7,2.62,4.75,6,9,6,3,0,5.89-1.4,6-4.09,0-1.89-.94-3.12-3.4-3.75-2.94-.75-4.35-.91-7.35-1.66s-4.74-2.74-4.77-5.47c0-4.44,4.31-7,8.63-7Z" transform="translate(146.6 -115.35)"/><path class="cls-4" d="M300.11,136.13c4.36,0,5,.64,7.85.91.31,0,.28.29.29.59.06,1.76,0,2.83.06,4.87-.18,0-.26.15-.31.07-1.31-2.9-5.13-4.74-8.79-4.74-2.29,0-4.51,1.45-4.51,3.58s1.77,2.88,4.11,3.44c1.58.38,6.57,1.33,8.11,2.23a5.94,5.94,0,0,1,3.18,5.55c-.06,3.2-3.09,7.24-9.62,7.24-3.2,0-4.9-.54-8.09-1.31-.6-.08-.78-.1-.69-.63a26.54,26.54,0,0,0-.15-5.78c0-.45.31-.6.45-.06.71,2.62,4.76,6,9,6,3,0,5.89-1.4,6-4.09.05-1.89-.94-3.12-3.4-3.75-2.94-.75-4.35-.91-7.35-1.66s-4.74-2.74-4.77-5.47c-.05-4.44,4.31-7,8.63-7Z" transform="translate(146.6 -115.35)"/><path class="cls-4" d="M-21.68,136.8a31.48,31.48,0,0,0,6,.13c.72,0,1.3-.26,1,1.48,0,.37-.15,2.07-.18,4.53,1.68-4,5.19-6.64,9.18-6.52,2.25.07,4.44,1.14,4.44,3.71a2.74,2.74,0,0,1-2.65,2.79,2.4,2.4,0,0,1-2.54-2.36,2.35,2.35,0,0,1,.92-2,3.14,3.14,0,0,0-1.9-.37c-3.34.16-6.39,4.42-7.11,5.93-.14,1.78-.12,4.51-.11,8.12,0,3.06.84,6.26,3.57,6.64.09,0,.42-.07.42.27s-.37.22-.48.21a54,54,0,0,0-8.94,0,.66.66,0,0,1-.59-.19c-.08-.14.19-.28.31-.31,1.77-.43,1.89-2.66,2-6.5s-.07-5.22-.14-8.74c-.05-2.79,0-6.32-3.28-6.32-.43,0-.47-.1-.48-.21s.08-.28.56-.24Z" transform="translate(146.6 -115.35)"/><path class="cls-4" d="M172.23,136.8a31.48,31.48,0,0,0,6,.13c.72,0,1.3-.26,1.05,1.48-.05.37-.15,2.07-.18,4.53,1.68-4,5.19-6.64,9.18-6.52,2.25.07,4.44,1.14,4.44,3.71a2.74,2.74,0,0,1-2.65,2.79,2.4,2.4,0,0,1-2.54-2.36,2.35,2.35,0,0,1,.92-2,3.14,3.14,0,0,0-1.9-.37c-3.34.16-6.39,4.42-7.11,5.93-.14,1.78-.12,4.51-.1,8.12,0,3.06.83,6.26,3.56,6.64.09,0,.42-.07.42.27s-.37.22-.48.21a54,54,0,0,0-8.94,0,.66.66,0,0,1-.59-.19c-.08-.14.19-.28.31-.31,1.77-.43,1.89-2.66,2-6.5s-.07-5.22-.14-8.74c-.05-2.79,0-6.32-3.28-6.32-.43,0-.47-.1-.48-.21s.08-.28.56-.24Z" transform="translate(146.6 -115.35)"/><path class="cls-4" d="M-141.89,115.35a63.91,63.91,0,0,0,11,.16c.14,0,.22.37.08.37-2.82,0-3,3.76-3,6.55,0,11.65.14,21.66.19,33.75,0,3.32-.57,6.73-2.5,9.3a15,15,0,0,1-10.09,5.88.57.57,0,0,1-.4-.2c-.12-.14.1-.24.21-.27,6.67-1.85,8.48-7.66,8.53-14,.1-12.32.2-22.55-.14-34.1-.09-3-.58-6.7-3.95-7.06-.13,0-.1-.36,0-.35Z" transform="translate(146.6 -115.35)"/><path class="cls-4" d="M-106.29,154a8,8,0,0,1-8.15,5.76c-4.77,0-8.17-3.41-8.17-8.54,0-4.35.18-6.91.09-10.93,0-1.78-1.07-3.53-2.71-3.36-.18,0-.3-.18-.29-.38s.33-.16.41-.14a35.06,35.06,0,0,0,5.63.27c.94,0,1.15.22,1,1.31-.1.92-.13,6.78-.28,12.75-.08,3.29,1.37,6.59,5.35,6.65,3.47.06,5.66-1.9,6.84-5.11-.25-1.36.07-8.93-.15-11.86-.13-1.71-1.32-3.46-2.85-3.37a.22.22,0,0,1-.19-.19c0-.13,0-.26.13-.25a40.84,40.84,0,0,0,6.3.13c1-.09.83.38.78.81-.3,2.29-.28,6.53-.39,13.72a10.5,10.5,0,0,0,.61,4.68,4.62,4.62,0,0,0,3.6,2.81c.6.07.57.14.57.27,0,.33-1,.86-2.08.8a6.06,6.06,0,0,1-6.07-5.83Z" transform="translate(146.6 -115.35)"/><path class="cls-4" d="M-64.41,136.81c-.07-.86,0-4-.06-5.48a12,12,0,0,0-.17-1.55,26.9,26.9,0,0,0,4.75-.8c.17,0,.21.16.21.16-.29.13-.4.3-.52.85-.42,1.87-.31,6.37-.49,6.84a64.71,64.71,0,0,0,7.3-.15c0,.69,0,2,0,2s-.08.19-.14.18c-.27-1.15-7.09-.92-7.09-.92.1.22-.16,12.06-.19,13.25a11.47,11.47,0,0,0,.76,4.91A4.56,4.56,0,0,0-56.5,159c.59.07.57.14.57.27,0,.33-1,.87-2.08.8a7.08,7.08,0,0,1-6.64-7.1c0-1.6.12-10.59.15-14.2a3.42,3.42,0,0,1,0-.74,22.27,22.27,0,0,0-2.39.11,8.37,8.37,0,0,0,0-1.51,10.4,10.4,0,0,0,2.43.2Z" transform="translate(146.6 -115.35)"/><path class="cls-3" d="M-10.9,183.26v2.09h-.26c-.18-.74-.31-.83-1.2-.83h-2.13v3.08c0,.42.15.58.63.58h1.5c1.26,0,1.58-.06,2.09-1.18H-10l-.39,1.6H-16.6v-.25c.67,0,1-.21,1-1.35v-5.37c0-1.07-.24-1.37-1-1.37V180h6.19v1.44h-.16c-.2-.95-.5-1-1.44-1h-2.48v3.67h2.4c.59,0,.81-.1.93-.84Z" transform="translate(146.6 -115.35)"/><path class="cls-4" d="M1.87,179.89v2H1.62a1.83,1.83,0,0,0-1.91-1.77c-.9,0-1.54.49-1.54,1.29,0,1.59,2.19,2,3.42,3.24a2.24,2.24,0,0,1,.75,1.71,2.45,2.45,0,0,1-2.45,2.44,9.09,9.09,0,0,1-2-.45q-.23,0-.33.33h-.26v-2.32h.26a2.05,2.05,0,0,0,2.07,2.11A1.54,1.54,0,0,0,1.39,187c0-1.49-2.31-2.18-3.27-3.14a2.45,2.45,0,0,1-.73-1.8A2.16,2.16,0,0,1-.27,179.8a8.22,8.22,0,0,1,1.68.33c.13,0,.16,0,.22-.24Z" transform="translate(146.6 -115.35)"/><path class="cls-4" d="M13.55,180.43V187c0,1,.2,1.32.93,1.32v.25h-3v-.25c.61,0,1-.18,1-1.37v-6.55H11.17c-1.16,0-1.68.33-1.76,1.23H9.16v-2h.25a1.21,1.21,0,0,0,.47.23,3.35,3.35,0,0,0,.82.08h4.5a2,2,0,0,0,1.37-.31h.27v2h-.17c-.16-.72-.45-1.23-1.81-1.23Z" transform="translate(146.6 -115.35)"/><path class="cls-3" d="M29.45,187.51c.19.58-.09.84-.68.84v.25h3v-.25c-.76,0-1-.24-1.23-1l-2.49-7.39H27.2L24.83,187c-.27.79-.47,1.23-1.28,1.35v.25h2.22v-.25c-.9,0-.75-.66-.46-1.5l.58-1.73h2.78l.78,2.39Zm-1-2.91H26.06l1.2-3.64h0l1.18,3.64Z" transform="translate(146.6 -115.35)"/><path class="cls-3" d="M39.63,187c0,1.05-.26,1.37-1,1.37v.25h4c1.62,0,2.76-.81,2.76-2.1a2.57,2.57,0,0,0-2.22-2.41v0c1.19-.39,1.73-1,1.73-1.95,0-1.1-.92-2.1-3-2.1H38.65v.25c.72,0,1,.28,1,1.37V187Zm1.14-3v-3.64h.85c1.4,0,2.06.76,2.06,1.84a1.8,1.8,0,0,1-2,1.8Zm0,.33h.81a2.18,2.18,0,0,1,2.47,2.12,1.66,1.66,0,0,1-1.69,1.84h-.71c-.67,0-.88-.28-.88-1.44v-2.52Z" transform="translate(146.6 -115.35)"/><path class="cls-3" d="M59.17,186.73l-.53,1.87H52.42v-.25c.69,0,1-.38,1-1.44v-5.4c0-1-.28-1.25-1-1.25V180h3.07v.25c-.72,0-1,.44-1,1.36v5.74c0,.67.26.82,1,.82h1.71c1,0,1.32-.22,1.69-1.45Z" transform="translate(146.6 -115.35)"/><path class="cls-4" d="M67.79,181.63V187c0,1.05.26,1.37,1,1.37v.25H65.68v-.25c.7,0,1-.27,1-1.37v-5.35c0-1.08-.24-1.37-1-1.37V180h3.09v.25c-.72,0-1,.33-1,1.37Z" transform="translate(146.6 -115.35)"/><path class="cls-4" d="M80.51,179.89v2h-.26a1.82,1.82,0,0,0-1.9-1.77c-.9,0-1.55.49-1.55,1.29,0,1.59,2.19,2,3.42,3.24a2.24,2.24,0,0,1,.75,1.71,2.44,2.44,0,0,1-2.44,2.44,9.23,9.23,0,0,1-2-.45c-.15,0-.25.11-.33.33H76v-2.32h.25a2.06,2.06,0,0,0,2.07,2.11A1.54,1.54,0,0,0,80,187c0-1.49-2.31-2.18-3.27-3.14A2.42,2.42,0,0,1,76,182a2.17,2.17,0,0,1,2.34-2.22,8.06,8.06,0,0,1,1.68.33c.14,0,.17,0,.23-.24Z" transform="translate(146.6 -115.35)"/><path class="cls-4" d="M94.75,184.5H90.07V187c0,1,.26,1.37,1,1.37v.25H88v-.25c.66,0,1-.23,1-1.37v-5.35c0-1-.21-1.37-1-1.37V180h3.1v.25c-.67,0-1,.28-1,1.37v2.45h4.68v-2.45c0-1-.22-1.37-1-1.37V180h3.08v.25c-.74,0-1,.35-1,1.37V187c0,1,.24,1.37,1,1.37v.25H93.79v-.25c.68,0,1-.23,1-1.37V184.5Z" transform="translate(146.6 -115.35)"/><path class="cls-3" d="M109.63,183.26v2.09h-.26c-.18-.74-.31-.83-1.2-.83H106v3.08c0,.42.15.58.63.58h1.5c1.26,0,1.58-.06,2.09-1.18h.25l-.39,1.6h-6.19v-.25c.67,0,1-.21,1-1.35v-5.37c0-1.07-.24-1.37-1-1.37V180h6.19v1.44H110c-.2-.95-.5-1-1.44-1H106v3.67h2.4c.59,0,.81-.1.93-.84Z" transform="translate(146.6 -115.35)"/><path class="cls-3" d="M118.5,187c0,1.07-.28,1.37-1,1.37v.25h4.08c3.37,0,4.74-2,4.74-4.15S124.79,180,121.5,180h-4v.25c.72,0,1,.33,1,1.37V187Zm1.14-6.64h1.64c2.71,0,3.75,2.07,3.75,4.12,0,2.34-1.28,3.81-3.41,3.81h-.88c-.8,0-1.1-.25-1.1-1.59v-6.34Z" transform="translate(146.6 -115.35)"/><path class="cls-4" d="M147,179.83v7.6c0,.8.15.95.89.95v.22h-2.76v-.22c.7,0,.88-.14.88-.95v-5.89c0-.25,0-.3-.12-.3a4.66,4.66,0,0,1-1.17.3v-.25a5.94,5.94,0,0,0,2-1.46Z" transform="translate(146.6 -115.35)"/><path class="cls-3" d="M155.28,181.93l.46-2.21H156c0,.11.07.19.15.23a.59.59,0,0,0,.33.06h4.74v.3l-3,8.41h-1.08l3.33-7.87h-3.76c-.54,0-.72.18-1.22,1.08Z" transform="translate(146.6 -115.35)"/><path class="cls-3" d="M171.11,185.77h2.12v-.69h-2.12V179.8h-.25l-4.19,5.71v.26h3.54v2.95h.9v-2.95Zm-.9-.71-2.7,0,2.67-3.66h0v3.64Z" transform="translate(146.6 -115.35)"/><path class="cls-3" d="M179.1,188.75a5.73,5.73,0,0,0,5.52-5.59c0-1.95-1.22-3.36-2.9-3.36a2.57,2.57,0,0,0-2.7,2.53,2.3,2.3,0,0,0,2.34,2.43,3,3,0,0,0,2.13-.94,5,5,0,0,1-4.39,4.68v.25Zm1-6.69c0-1.09.63-1.87,1.51-1.87s1.94,1,1.92,3.18a2.48,2.48,0,0,1-1.66.75c-1.07,0-1.77-.81-1.77-2.06Z" transform="translate(146.6 -115.35)"/><path class="cls-4" d="M-111.91,219.59h-.34l-3-8-2.89,8h-.3l-3.33-9c-.63-1.68-.93-1.73-1.84-1.73v-.33h4v.33c-.9.09-1.14.43-.82,1.31l2.55,6.91,2.31-6.32-.24-.71c-.33-.93-.75-1.19-1.52-1.19v-.33h4v.33c-1,0-1.28.34-.92,1.33l2.55,6.89,2.22-6.1c.48-1.29.38-2.14-.82-2.14v-.31h3.31v.33c-.85.05-1.33.61-1.92,2.2Z" transform="translate(146.6 -115.35)"/><path class="cls-4" d="M-95.74,217.39c0,1.33.33,1.73,1.24,1.73v.32h-3.92v-.32c.9,0,1.24-.35,1.24-1.73v-6.78c0-1.37-.3-1.73-1.24-1.73v-.33h3.92v.33c-.91,0-1.24.41-1.24,1.73Z" transform="translate(146.6 -115.35)"/><path class="cls-4" d="M-75.84,219.44h-.33L-83.84,210h0v7.64c0,1.1.44,1.5,1.42,1.5v.32h-3.3v-.32c.91,0,1.35-.29,1.35-1.87v-6.36c0-1.22-.33-1.9-1.62-2v-.33h2.8l6.8,8.48h0v-6.37c0-1.42-.38-1.78-1.33-1.78v-.33h3.29v.33c-1.06,0-1.4.43-1.4,1.71Z" transform="translate(146.6 -115.35)"/><path class="cls-4" d="M-58.25,215.32h-.32c-.23-.93-.4-1-1.52-1h-2.7v3.9c0,.53.19.74.8.74h1.9c1.59,0,2-.08,2.64-1.5h.32l-.49,2h-7.85v-.32c.86,0,1.24-.27,1.24-1.71v-6.8c0-1.35-.31-1.73-1.24-1.73v-.33h7.85v1.83h-.21c-.25-1.2-.63-1.29-1.83-1.29h-3.13v4.65h3c.74,0,1-.13,1.18-1.06h.32Z" transform="translate(146.6 -115.35)"/><path class="cls-4" d="M-26.29,213.25c-.69,0-.84,0-1.16.36-.72.72-.76,1.86-1.65,3.23.91,1.14,1.67,2.09,2.22,2.09a1.25,1.25,0,0,0,.74-.38l.25.21a2.14,2.14,0,0,1-1.73,1c-1.12,0-1.71-1-2.34-1.64a3.84,3.84,0,0,1-3.15,1.64,2.87,2.87,0,0,1-3-2.7c0-1.12.87-2.22,2.37-3.06A3.22,3.22,0,0,1-35,211.56a2.45,2.45,0,0,1,2.58-2.49,2.08,2.08,0,0,1,2.18,2c0,.86-.58,1.69-1.95,2.42a22,22,0,0,1,2.79,3,4.84,4.84,0,0,0,.8-2.28c0-.67-.19-.9-.8-.93v-.33h3.1Zm-6,5.62a2.7,2.7,0,0,0,2.12-1.16,31.3,31.3,0,0,0-3.28-3.48,2.56,2.56,0,0,0-1.35,2.11A2.68,2.68,0,0,0-32.33,218.87Zm-.14-5.64a2.25,2.25,0,0,0,1.26-2,1.44,1.44,0,0,0-1.45-1.56,1.32,1.32,0,0,0-1.4,1.33A3.64,3.64,0,0,0-32.47,213.23Z" transform="translate(146.6 -115.35)"/><path class="cls-4" d="M1,211H.65a2.31,2.31,0,0,0-2.41-2.24c-1.14,0-2,.62-2,1.63,0,2,2.77,2.55,4.33,4.1a2.85,2.85,0,0,1,1,2.17,3.1,3.1,0,0,1-3.1,3.1A11.61,11.61,0,0,1-4,219.14c-.19,0-.33.13-.42.41h-.33v-2.94h.33a2.61,2.61,0,0,0,2.62,2.68,2,2,0,0,0,2.18-1.94c0-1.88-2.92-2.76-4.14-4a3.1,3.1,0,0,1-.93-2.28,2.75,2.75,0,0,1,3-2.81,10.17,10.17,0,0,1,2.12.42c.17,0,.21,0,.29-.31H1Z" transform="translate(146.6 -115.35)"/><path class="cls-4" d="M13.13,217.39c0,1.35.33,1.73,1.24,1.73v.32H10.45v-.32c.76,0,1.24-.25,1.24-1.69v-6.82c0-1.33-.32-1.73-1.24-1.73v-.33h4c3,0,4.22,1.6,4.22,3.1,0,1.81-1.37,2.81-3.84,2.81a13.41,13.41,0,0,1-1.67-.11Zm0-3.54a3.33,3.33,0,0,0,1.35.19c1.62,0,2.64-.87,2.64-2.35A2.54,2.54,0,0,0,14.48,209H13.13Z" transform="translate(146.6 -115.35)"/><path class="cls-4" d="M30,217.39c0,1.33.33,1.73,1.24,1.73v.32H27.34v-.32c.9,0,1.24-.35,1.24-1.73v-6.78c0-1.37-.3-1.73-1.24-1.73v-.33h3.92v.33c-.91,0-1.24.41-1.24,1.73Z" transform="translate(146.6 -115.35)"/><path class="cls-4" d="M42.7,217.39c0,1.33.34,1.73,1.23,1.73v.32H40v-.32c.83,0,1.23-.27,1.23-1.73v-6.82c0-1.43-.36-1.69-1.23-1.69v-.33h4.46c2.45,0,3.63,1.41,3.63,2.85a2.71,2.71,0,0,1-2.24,2.68c2,1.31,2.72,4.9,4.52,5v.32H48.17c-2-2.47-2.61-5-4.6-5H42.7Zm0-3.44H44a2.36,2.36,0,0,0,2.56-2.51A2.49,2.49,0,0,0,43.84,209H42.7Z" transform="translate(146.6 -115.35)"/><path class="cls-4" d="M61.45,217.39c0,1.33.32,1.73,1.23,1.73v.32H58.77v-.32c.89,0,1.24-.35,1.24-1.73v-6.78c0-1.37-.31-1.73-1.24-1.73v-.33h3.91v.33c-.91,0-1.23.41-1.23,1.73Z" transform="translate(146.6 -115.35)"/><path class="cls-4" d="M76.84,217.44c0,1.32.25,1.68,1.18,1.68v.32H74.16v-.32c.78,0,1.23-.23,1.23-1.73v-8.3H73.82c-1.47,0-2.13.41-2.23,1.55h-.32v-2.48h.32a1.63,1.63,0,0,0,.59.3,4.68,4.68,0,0,0,1,.09h5.7a2.54,2.54,0,0,0,1.73-.39H81v2.48h-.21c-.21-.91-.57-1.55-2.3-1.55H76.84Z" transform="translate(146.6 -115.35)"/><path class="cls-4" d="M95.86,211h-.33a2.31,2.31,0,0,0-2.41-2.24c-1.14,0-2,.62-2,1.63,0,2,2.78,2.55,4.34,4.1a2.85,2.85,0,0,1,1,2.17,3.1,3.1,0,0,1-3.1,3.1,11.58,11.58,0,0,1-2.49-.57c-.19,0-.32.13-.42.41h-.32v-2.94h.32a2.61,2.61,0,0,0,2.62,2.68,2,2,0,0,0,2.19-1.94c0-1.88-2.93-2.76-4.14-4a3.06,3.06,0,0,1-.93-2.28,2.74,2.74,0,0,1,3-2.81,10.31,10.31,0,0,1,2.13.42c.17,0,.21,0,.28-.31h.31Z" transform="translate(146.6 -115.35)"/><path class="cls-4" d="M129.92,208.88c-.93,0-1.29.66-1.21,1.69l.55,6.7c.11,1.33.34,1.75,1.35,1.85v.32h-3.92v-.32c.9-.16,1.2-.55,1.12-1.64l-.53-7h0l-3.72,9h-.28l-3.65-9h0l-.61,6.71a1.59,1.59,0,0,0,1.41,2v.32H117v-.32c1.1-.16,1.27-.8,1.38-2l.67-7.48a2.14,2.14,0,0,0-1.43-.76v-.33h2.76l3.48,8.57,3.53-8.57h2.56Z" transform="translate(146.6 -115.35)"/><path class="cls-4" d="M146.61,215.32h-.33c-.23-.93-.4-1-1.52-1h-2.7v3.9c0,.53.19.74.8.74h1.9c1.6,0,2-.08,2.64-1.5h.33l-.5,2h-7.84v-.32c.85,0,1.23-.27,1.23-1.71v-6.8c0-1.35-.3-1.73-1.23-1.73v-.33h7.84v1.83H147c-.24-1.2-.62-1.29-1.82-1.29h-3.14v4.65h3c.74,0,1-.13,1.18-1.06h.33Z" transform="translate(146.6 -115.35)"/><path class="cls-4" d="M159.35,217.39c0,1.33.35,1.73,1.24,1.73v.32h-3.91v-.32c.83,0,1.23-.27,1.23-1.73v-6.82c0-1.43-.36-1.69-1.23-1.69v-.33h4.46c2.45,0,3.63,1.41,3.63,2.85a2.71,2.71,0,0,1-2.24,2.68c2,1.31,2.71,4.9,4.52,5v.32h-2.22c-2-2.47-2.61-5-4.6-5h-.88Zm0-3.44h1.33a2.36,2.36,0,0,0,2.57-2.51,2.49,2.49,0,0,0-2.76-2.47h-1.14Z" transform="translate(146.6 -115.35)"/><path class="cls-4" d="M185.31,211.65c-.53-2.05-1.66-2.94-3.54-2.94-2.62,0-4,2.1-4,4.9,0,3.26,1.69,5.41,4.14,5.41a4,4,0,0,0,3.8-2.39l.28.26a4.75,4.75,0,0,1-4.54,2.82,5.19,5.19,0,0,1-5.35-5.42c0-3.46,2.37-6,5.62-6a29,29,0,0,1,3,.45.61.61,0,0,0,.59-.34h.3v3.25Z" transform="translate(146.6 -115.35)"/><path class="cls-4" d="M197.56,214.23v3.16c0,1.31.33,1.73,1.26,1.73v.32h-3.94v-.32c.84,0,1.24-.29,1.24-1.73v-6.78c0-1.3-.27-1.73-1.24-1.73v-.33h3.94v.33c-.86,0-1.26.34-1.26,1.73v3.09h5.93v-3.09c0-1.33-.28-1.73-1.21-1.73v-.33h3.89v.33c-.93,0-1.24.43-1.24,1.73v6.78c0,1.29.31,1.73,1.24,1.73v.32h-3.89v-.32c.85,0,1.21-.29,1.21-1.73v-3.16Z" transform="translate(146.6 -115.35)"/><path class="cls-4" d="M221.37,215h-3.51l-.74,2.19c-.37,1.06-.56,1.88.58,1.9v.32h-2.81v-.32c1-.16,1.28-.71,1.62-1.71l3-9h1.12l3.15,9.37c.33,1,.59,1.31,1.56,1.31v.32H221.5v-.32c.74,0,1.11-.33.86-1.07Zm-1.75-5.28h0l-1.51,4.62h3.05Z" transform="translate(146.6 -115.35)"/><path class="cls-4" d="M243.9,219.44h-.32L235.91,210h0v7.64c0,1.1.43,1.5,1.42,1.5v.32H234v-.32c.91,0,1.35-.29,1.35-1.87v-6.36c0-1.22-.33-1.9-1.62-2v-.33h2.79l6.8,8.48h0v-6.37c0-1.42-.38-1.78-1.33-1.78v-.33h3.29v.33c-1.06,0-1.41.43-1.41,1.71Z" transform="translate(146.6 -115.35)"/><path class="cls-4" d="M259.67,217.44c0,1.32.25,1.68,1.18,1.68v.32H257v-.32c.77,0,1.23-.23,1.23-1.73v-8.3h-1.58c-1.46,0-2.12.41-2.22,1.55h-.32v-2.48h.32a1.48,1.48,0,0,0,.59.3,4.64,4.64,0,0,0,1,.09h5.7a2.53,2.53,0,0,0,1.73-.39h.34v2.48h-.2c-.21-.91-.57-1.55-2.3-1.55h-1.66Z" transform="translate(146.6 -115.35)"/><path class="cls-4" d="M278.69,211h-.32a2.31,2.31,0,0,0-2.41-2.24c-1.14,0-2,.62-2,1.63,0,2,2.77,2.55,4.33,4.1a2.85,2.85,0,0,1,.95,2.17,3.1,3.1,0,0,1-3.09,3.1,11.58,11.58,0,0,1-2.49-.57c-.19,0-.33.13-.42.41H273v-2.94h.32a2.61,2.61,0,0,0,2.62,2.68,2,2,0,0,0,2.18-1.94c0-1.88-2.92-2.76-4.14-4a3.1,3.1,0,0,1-.93-2.28,2.75,2.75,0,0,1,3-2.81,10.17,10.17,0,0,1,2.12.42c.17,0,.21,0,.29-.31h.3Z" transform="translate(146.6 -115.35)"/></g></svg>