<svg id="Layer_2" data-name="Layer 2" xmlns="http://www.w3.org/2000/svg" xmlns:xlink="http://www.w3.org/1999/xlink" viewBox="0 0 456.71 56.02"><defs><style>.cls-1{fill:none;}.cls-2{clip-path:url(#clip-path);}.cls-3,.cls-4{fill:#000c31;}.cls-3{fill-rule:evenodd;}</style><clipPath id="clip-path" transform="translate(146.6 -115.35)"><rect class="cls-1" x="-148" y="113.75" width="459.5" height="59"/></clipPath></defs><title>J&amp;amp;B One Colour wine + spirit White on 323641 - Name only</title><g class="cls-2"><path class="cls-3" d="M240.76,136.05a11.84,11.84,0,0,0-12,12.06,11.65,11.65,0,0,0,11.7,11.57,12,12,0,0,0,12.13-12,11.72,11.72,0,0,0-11.78-11.68Zm-1.43,2.07a7.14,7.14,0,0,0-7,7.53,14,14,0,0,0,3.05,8.42c2,2.4,4.53,3.68,6.62,3.68,3,0,6.85-2.1,6.85-7.75a13.3,13.3,0,0,0-2.7-8c-1.82-2.47-4.1-3.88-6.78-3.88Z" transform="translate(146.6 -115.35)"/><path class="cls-3" d="M-45.57,148.38c0,.14.26,0,.38,0a120.1,120.1,0,0,0,11.85-5.09c.79-.42,1-.49.69-1.11A7.32,7.32,0,0,0-39.09,138c-5.7.1-7.59,5.47-6.48,10.42Zm.57,1.82c4.7-2,12.22-5.22,17-6.95.95-.34.56-.87.31-1.31a11.57,11.57,0,0,0-11-5.8c-6.44.36-11,6.4-10.84,12.24a11.72,11.72,0,0,0,11.82,11.55c4.18.11,7.51-2.42,9.39-4.71.32-.39,1.12-1.54.85-1.82s-.42-.14-.88.35A10.12,10.12,0,0,1-35.72,157c-4.2.08-7.65-3.12-9.28-6.82Z" transform="translate(146.6 -115.35)"/><path class="cls-3" d="M209.25,136.05a11.85,11.85,0,0,0-12.06,12.06,11.66,11.66,0,0,0,11.7,11.57,12,12,0,0,0,12.13-12,11.72,11.72,0,0,0-11.77-11.68Zm-1.44,2.07a7.14,7.14,0,0,0-7,7.53,13.91,13.91,0,0,0,3.05,8.42c2,2.4,4.52,3.68,6.62,3.68,3.05,0,6.85-2.1,6.85-7.75a13.37,13.37,0,0,0-2.7-8c-1.83-2.47-4.11-3.88-6.79-3.88Z" transform="translate(146.6 -115.35)"/><path class="cls-3" d="M143.43,135.19a46.62,46.62,0,0,0,8.31-.28c4-.85,6.5-4.72,6.4-9.29-.12-5.13-3.44-7.88-7.58-8.24a45.67,45.67,0,0,0-6.7.09c-.42,4.68-.37,14.37-.43,17.72Zm0,1.84.14,20.22s4,.38,7.22.31c6.19-.13,9.44-4.53,9.44-10.23,0-7.14-3.61-10.17-10-10.43a58.48,58.48,0,0,0-6.75.13Zm-7.93-21.54c4.15.23,11,.2,15.17.16,5.91-.07,12,3.64,12.13,9.88.13,5.76-4.78,9.79-10.18,10.46,7,.35,12.86,4.34,12.79,11.37-.06,6.3-6.42,12-14.37,11.82-5.33-.14-9.55-.27-16.32.07-.1,0-.45,0-.45-.33s.51-.1,1-.17c2.61-.14,3.66-2.82,3.74-4.84.27-7.19.28-12,.27-17.13,0-4.34-.09-9.48-.2-15.39-.1-5.06-2.31-5.45-3.46-5.45-.27,0-.64.19-.63-.09s.15-.38.5-.36Z" transform="translate(146.6 -115.35)"/><path class="cls-3" d="M5.47,126.94a2.43,2.43,0,0,1,2.39-2.35,2.32,2.32,0,0,1,2.33,2.34,2.36,2.36,0,0,1-2.36,2.36,2.32,2.32,0,0,1-2.36-2.35Zm-2.32,9.9a43.51,43.51,0,0,0,6,.09c.57-.05,1.07.06.91,1.3s-.12,6.41-.28,13.88c-.07,3.34.16,6.42,3.82,7.15.51.11.56.35.22.55a3,3,0,0,1-1.35.19c-3.36-.05-6.58-1.95-6.56-6.36,0-5.21.15-7.35.07-11.86,0-2.06-.2-4.28-2.79-4.47-.32,0-.44-.1-.45-.22s0-.27.43-.25Z" transform="translate(146.6 -115.35)"/><path class="cls-3" d="M55,126.94a2.43,2.43,0,0,1,2.39-2.35,2.32,2.32,0,0,1,2.33,2.34,2.37,2.37,0,0,1-2.37,2.36A2.32,2.32,0,0,1,55,126.94Zm-2.33,9.9a43.66,43.66,0,0,0,6,.09c.57-.05,1.07.06.9,1.3s-.12,6.41-.27,13.88c-.07,3.34.16,6.42,3.81,7.15.52.11.56.35.22.55A3,3,0,0,1,62,160c-3.36-.05-6.58-1.95-6.56-6.36,0-5.21.15-7.35.07-11.86,0-2.06-.2-4.28-2.79-4.47-.32,0-.45-.1-.45-.22s0-.27.42-.25Z" transform="translate(146.6 -115.35)"/><path class="cls-4" d="M259,116a61.23,61.23,0,0,0,6.18.26c.88,0,1,.31.89,1.35-.21,11.67-.15,20.24-.28,30.4a87.2,87.2,0,0,0,9.65-7.85c.81-.72,1.48-2.47,0-2.91-.12,0-.28,0-.28-.13s0-.22.25-.23a56.42,56.42,0,0,0,7.66,0c.1,0,.23,0,.23.22s-.18.19-.28.19c-2.34.73-6,4-11.77,8.56,3.19,2.23,8.28,10.41,11.25,11.85,2.24,1.08,3.33-.16,3.44.55.1.55-1.63,1.8-3.68,1.8-3.48,0-5.58-2-7.67-4.28a68.75,68.75,0,0,1-5.91-7.81c-.54.47-1.95,1.46-2.83,2.26-.09,4.39-.08,8.37,3.21,8.7.34,0,.47.07.47.25s-.3.29-.63.26a42.68,42.68,0,0,0-9.22-.08c-.25,0-.41-.1-.41-.29s.24-.21.24-.21c2.33-.19,2.34-3.13,2.4-6.33.24-12.27.28-19.17.09-29.75-.06-3.58-.79-6.15-3.11-6.28-.52,0-.71-.54.15-.45Z" transform="translate(146.6 -115.35)"/><path class="cls-4" d="M20.22,136.76a46,46,0,0,0,5.78.12c1.25-.07,1.15.46,1.09,1.32-.1,1.7.08,2.62-.39,3.64.87-1.49,4.34-5.42,9.44-5.42,3.57,0,6.61,1.94,6.61,6.36,0,4.17,0,6.12,0,10.66,0,2.74.09,5.18,2.9,5.42.08,0,.34-.07.39.22s-.28.24-.38.23a54.6,54.6,0,0,0-8.51-.05c-.1,0-.4.14-.45-.2s.3-.21.39-.23c1.31-.27,1.74-1.74,1.78-3.1.12-5.09.13-7.69-.12-12.29-.14-2.67-1.17-4.68-4.21-4.68-3.51,0-6,2.46-7.38,4.43a2.28,2.28,0,0,0-.08.89c0,3.12,0,5.74,0,9.83,0,2.24.57,4.65,3.32,4.82.09,0,.37,0,.35.3,0,.18-.31.22-.39.21a64.6,64.6,0,0,0-8.82,0c-.3,0-.41,0-.47-.21s.26-.17.44-.23c1.59-.5,1.64-2.19,1.67-3.6.13-5.85.14-11.55-.1-14.31-.16-1.79-.3-3.88-2.85-3.65-.09,0-.31.06-.34-.23s.15-.23.37-.22Z" transform="translate(146.6 -115.35)"/><path class="cls-3" d="M107.21,133.82c-.4.33-1.89,1.74-2.75,2.47-.23.2-.53,0-.32-.31,1.26-1.93-.28-5.76-5.29-5.76-3.36,0-6.21,2-6.21,5.77,0,3.59,2.87,5.85,7.5,5.39,0,.08,0,2,0,2.11-4.77-.46-9.13,1.78-9.13,7.2,0,4.29,3.09,7.46,9.11,7.46,4.59,0,8.26-2.06,8.26-5.48a3,3,0,0,0-4.28-3c-.33.15-.38.45-.5.42s-.08-.27,0-.39a4.1,4.1,0,0,1,3.77-2.4c2.42,0,4.21,1.6,4.21,4.55,0,3.47-3.85,8.05-12.34,8.05-6.94,0-12.61-3.36-12.61-8.91s4.79-8.64,10.72-8.62c-5.33.26-8.66-2.78-8.66-6.23,0-4.85,5.21-7.57,9.84-7.57,3.78,0,6.63.85,8.72,3.27.44.51,1,1.19,0,2Z" transform="translate(146.6 -115.35)"/><path class="cls-4" d="M-83.55,136.13c4.36,0,5,.64,7.86.91.3,0,.27.29.28.59.06,1.76,0,2.83.06,4.87-.18,0-.26.15-.31.07-1.31-2.9-5.13-4.74-8.79-4.74-2.29,0-4.51,1.45-4.51,3.58s1.77,2.88,4.11,3.44c1.58.38,6.57,1.33,8.11,2.23a5.94,5.94,0,0,1,3.18,5.55c-.06,3.2-3.09,7.24-9.62,7.24-3.2,0-4.9-.54-8.09-1.31-.6-.08-.78-.1-.69-.63a26.54,26.54,0,0,0-.15-5.78c0-.45.31-.6.46-.06.7,2.62,4.75,6,9,6,3,0,5.89-1.4,6-4.09,0-1.89-.94-3.12-3.4-3.75-2.94-.75-4.35-.91-7.35-1.66s-4.74-2.74-4.77-5.47c0-4.44,4.31-7,8.63-7Z" transform="translate(146.6 -115.35)"/><path class="cls-4" d="M300.11,136.13c4.36,0,5,.64,7.85.91.31,0,.28.29.29.59.06,1.76,0,2.83.06,4.87-.18,0-.26.15-.31.07-1.31-2.9-5.13-4.74-8.79-4.74-2.29,0-4.51,1.45-4.51,3.58s1.77,2.88,4.11,3.44c1.58.38,6.57,1.33,8.11,2.23a5.94,5.94,0,0,1,3.18,5.55c-.06,3.2-3.09,7.24-9.62,7.24-3.2,0-4.9-.54-8.09-1.31-.6-.08-.78-.1-.69-.63a26.54,26.54,0,0,0-.15-5.78c0-.45.31-.6.45-.06.71,2.62,4.76,6,9,6,3,0,5.89-1.4,6-4.09.05-1.89-.94-3.12-3.4-3.75-2.94-.75-4.35-.91-7.35-1.66s-4.74-2.74-4.77-5.47c-.05-4.44,4.31-7,8.63-7Z" transform="translate(146.6 -115.35)"/><path class="cls-4" d="M-21.68,136.8a31.48,31.48,0,0,0,6,.13c.72,0,1.3-.26,1,1.48,0,.37-.15,2.07-.18,4.53,1.68-4,5.19-6.64,9.18-6.52,2.25.07,4.44,1.14,4.44,3.71a2.74,2.74,0,0,1-2.65,2.79,2.4,2.4,0,0,1-2.54-2.36,2.35,2.35,0,0,1,.92-2,3.14,3.14,0,0,0-1.9-.37c-3.34.16-6.39,4.42-7.11,5.93-.14,1.78-.12,4.51-.11,8.12,0,3.06.84,6.26,3.57,6.64.09,0,.42-.07.42.27s-.37.22-.48.21a54,54,0,0,0-8.94,0,.66.66,0,0,1-.59-.19c-.08-.14.19-.28.31-.31,1.77-.43,1.89-2.66,2-6.5s-.07-5.22-.14-8.74c-.05-2.79,0-6.32-3.28-6.32-.43,0-.47-.1-.48-.21s.08-.28.56-.24Z" transform="translate(146.6 -115.35)"/><path class="cls-4" d="M172.23,136.8a31.48,31.48,0,0,0,6,.13c.72,0,1.3-.26,1.05,1.48-.05.37-.15,2.07-.18,4.53,1.68-4,5.19-6.64,9.18-6.52,2.25.07,4.44,1.14,4.44,3.71a2.74,2.74,0,0,1-2.65,2.79,2.4,2.4,0,0,1-2.54-2.36,2.35,2.35,0,0,1,.92-2,3.14,3.14,0,0,0-1.9-.37c-3.34.16-6.39,4.42-7.11,5.93-.14,1.78-.12,4.51-.1,8.12,0,3.06.83,6.26,3.56,6.64.09,0,.42-.07.42.27s-.37.22-.48.21a54,54,0,0,0-8.94,0,.66.66,0,0,1-.59-.19c-.08-.14.19-.28.31-.31,1.77-.43,1.89-2.66,2-6.5s-.07-5.22-.14-8.74c-.05-2.79,0-6.32-3.28-6.32-.43,0-.47-.1-.48-.21s.08-.28.56-.24Z" transform="translate(146.6 -115.35)"/><path class="cls-4" d="M-141.89,115.35a63.91,63.91,0,0,0,11,.16c.14,0,.22.37.08.37-2.82,0-3,3.76-3,6.55,0,11.65.14,21.66.19,33.75,0,3.32-.57,6.73-2.5,9.3a15,15,0,0,1-10.09,5.88.57.57,0,0,1-.4-.2c-.12-.14.1-.24.21-.27,6.67-1.85,8.48-7.66,8.53-14,.1-12.32.2-22.55-.14-34.1-.09-3-.58-6.7-3.95-7.06-.13,0-.1-.36,0-.35Z" transform="translate(146.6 -115.35)"/><path class="cls-4" d="M-106.29,154a8,8,0,0,1-8.15,5.76c-4.77,0-8.17-3.41-8.17-8.54,0-4.35.18-6.91.09-10.93,0-1.78-1.07-3.53-2.71-3.36-.18,0-.3-.18-.29-.38s.33-.16.41-.14a35.06,35.06,0,0,0,5.63.27c.94,0,1.15.22,1,1.31-.1.92-.13,6.78-.28,12.75-.08,3.29,1.37,6.59,5.35,6.65,3.47.06,5.66-1.9,6.84-5.11-.25-1.36.07-8.93-.15-11.86-.13-1.71-1.32-3.46-2.85-3.37a.22.22,0,0,1-.19-.19c0-.13,0-.26.13-.25a40.84,40.84,0,0,0,6.3.13c1-.09.83.38.78.81-.3,2.29-.28,6.53-.39,13.72a10.5,10.5,0,0,0,.61,4.68,4.62,4.62,0,0,0,3.6,2.81c.6.07.57.14.57.27,0,.33-1,.86-2.08.8a6.06,6.06,0,0,1-6.07-5.83Z" transform="translate(146.6 -115.35)"/><path class="cls-4" d="M-64.41,136.81c-.07-.86,0-4-.06-5.48a12,12,0,0,0-.17-1.55,26.9,26.9,0,0,0,4.75-.8c.17,0,.21.16.21.16-.29.13-.4.3-.52.85-.42,1.87-.31,6.37-.49,6.84a64.71,64.71,0,0,0,7.3-.15c0,.69,0,2,0,2s-.08.19-.14.18c-.27-1.15-7.09-.92-7.09-.92.1.22-.16,12.06-.19,13.25a11.47,11.47,0,0,0,.76,4.91A4.56,4.56,0,0,0-56.5,159c.59.07.57.14.57.27,0,.33-1,.87-2.08.8a7.08,7.08,0,0,1-6.64-7.1c0-1.6.12-10.59.15-14.2a3.42,3.42,0,0,1,0-.74,22.27,22.27,0,0,0-2.39.11,8.37,8.37,0,0,0,0-1.51,10.4,10.4,0,0,0,2.43.2Z" transform="translate(146.6 -115.35)"/></g></svg>